# xmcd
#
# Track frame offsets:
#	150
#	17827
#	30643
#	47941
#	58885
#	71848
#	89302
#	105668
#	116886
#	127212
#	146736
#	160857
#	177145
#	190261
#
# Disc length: 2760 seconds
#
# Revision: 0
# Processed by: cddbd v1.5.2PL0 Copyright (c) Steve Scherf et al.
# Submitted via: audiograbber 1.83.01
#
DISCID=d20ac60e
DTITLE=Old Crow Medicine Show - Best Of Old Crow Medicine Show
DYEAR=2017
DGENRE=Bluegrass
TTITLE0=Wagon Wheel
TTITLE1=Tell It To Me
TTITLE2=Down Home Girl
TTITLE3=Alabama High-Test
TTITLE4=Big Time In The Jungle
TTITLE5=CC Rider
TTITLE6=Take 'Em Away
TTITLE7=Humdinger
TTITLE8=Fall On My Knees
TTITLE9=My Good Gal
TTITLE10=I Hear Them All
TTITLE11=Caroline
TTITLE12=Black-Haird Quebecoise (Previously Unreleased)
TTITLE13=Heart Up In The Sky (Previously Unreleased)
EXTD=
EXTT0=
EXTT1=
EXTT2=
EXTT3=
EXTT4=
EXTT5=
EXTT6=
EXTT7=
EXTT8=
EXTT9=
EXTT10=
EXTT11=
EXTT12=
EXTT13=
PLAYORDER=
